# xmcd
#
# Track frame offsets: 
#        150
#        13317
#        25950
#        37140
#        50920
#        59030
#        71540
#        81595
#        95750
#        108235
#        123535
#
# Disc length: 1815 seconds
#
# Revision: 2
# Processed by: cddbd v1.5.1PL2 Copyright (c) Steve Scherf et al.
# Submitted via: ExactAudioCopy v0.95b3
#
DISCID=aa07150b
DTITLE=Ry Cooder - Ry Cooder
DYEAR=1970
DGENRE=
TTITLE0=Alimony
TTITLE1=France Chance
TTITLE2=One Meat Ball
TTITLE3=Do Re Mi
TTITLE4=My Old Kentucky Home (Turpentine and Dandelion Wine)
TTITLE5=How Can a Poor Man Stand Such Times and Live?
TTITLE6=Available Space
TTITLE7=Pigmeat
TTITLE8=Police Dog Blues
TTITLE9=Goin' to Brownsville
TTITLE10=Dark Is the Night
EXTD=Ry Cooder: vocal, guitar, mandolin, bass\nVan Dyke Parks: piano\n
EXTD=Musicians: Chris Ethridge, Ritchie Hayward, Roy Estrada, Milt Hol
EXTD=land, John Barbeda, Max Bennett, Bobby Bruce\nVoices: Gloria Jone
EXTD=s and Co.\nReprise LP 6402 (1970) - Reprise CD 2-6402 (1995), UPC 07
EXTD=5992751025.
EXTT0=(Brenda Jones/Welton Young/Robert Higginbotham)
EXTT1=(Joe Calicott)
EXTT2=(Lois Singer/Hy Zaret - arr. Van Dyke Parks)
EXTT3=(Woody Guthrie - arr. and conducted by Kirby Johnson)
EXTT4=(Randy Newman - arr. and conducted by Kirby Johnson)
EXTT5=(Alfred Reed - arr. and conducted by Kirby Johnson)
EXTT6=(Ry Cooder)
EXTT7=(Huddie Ledbetter)
EXTT8=(Arthur Blake - adapt. Ry Cooder)
EXTT9=(John Estes - adapt. Ry Cooder)
EXTT10=(Blind Willie Johnson - adapt. Ry Cooder)
PLAYORDER=
